<svg xmlns="http://www.w3.org/2000/svg" height="800" width="1200" viewBox="-47.458 -13.238 411.299 79.431" fill-rule="evenodd"><path d="M211.12 7.376c-.654-.988-.972-2-1.025-3.04-.077-1.5.677-2.662 2.194-2.893.614-.093 1.216.148 1.723.486.774.517 1.43 1.17 1.916 1.978.178.294.423.54.643.8.853 1.016 1.962 1.65 3.082 2.296.405.234.78.383 1.26.382l19.56.02 13.265-.024 61.83.042c.804.001.804.002.804.82l.012 36.397c0 .48-.124.585-.592.585l-86.85-.016c-.446 0-.84.095-1.253.274-1.527.666-3.13 1.05-4.802 1.1l-3.56.108c-.422.01-.736.15-.91.56l-.515 1.145c-.847 2.357-2.65 3.56-4.946 4.257-2.45.746-4.493.004-6.35-1.546-.532-.443-1.206-.61-1.755-1.014-1.603-1.18-2.963-2.548-3.52-4.53-.087-.31-.21-.355-.49-.367-1.384-.055-2.754.115-4.13.214-1.236.09-2.478.15-3.7-.18-.18-.05-.382-.026-.574-.026L.806 45.214c-.795 0-.795.001-.795-.774L0 7.99c0-.482.11-.62.596-.567.5.054 1.012-.006 1.52-.006H196.68c.157 0 .316.01.472-.008.27-.033.287-.297.346-.474.073-.216-.18-.16-.278-.186-.815-.196-1.334-.8-1.722-1.44a7.47 7.47 0 0 1-.966-2.634c-.23-1.382.555-2.515 1.937-2.643 1.287-.12 2.54.094 3.698.71.7.367 1.2.923 1.414 1.674.234.79.92 1.013 1.55 1.17.99.245 2.048.144 3.035.496.677.242 1.227.643 1.7 1.17.56.622 1.21 1.163 1.643 1.895.093.157.243.236.44.23l1.173-.003zm18.384 37.006l85.56.01c.404 0 .476-.1.476-.49V8.764c0-.365-.05-.498-.468-.498l-93.354.015c-.125 0-.278-.07-.4.1.888.89 1.597 1.936 2.457 2.846.964 1.02 1.843 2.103 2.54 3.32 1.41 2.467 2.004 5.114 1.615 7.945-.175 1.27-1.295 2.25-2.543 2.408-.88.11-1.736-.007-2.598-.116-1.712-.218-3.39-.57-4.97-1.302-.75-.348-1.326-.96-2.004-1.37-.95-.572-1.99-.98-2.736-1.932-.26.966-.51 1.844-.965 2.644l2.103.58c3.484.982 6.797 2.363 9.875 4.28 1.503.937 2.902 2.02 3.93 3.478.744 1.056 1.843 1.785 2.568 2.895l-.012-21.214c-.001-.54.16-.67.683-.668l15.21.005c1.387-.004 2.752.17 4.067.56 4.16 1.23 5.907 3.756 6.14 7.544.178 2.883.086 5.767.105 8.65.01 1.346-.06 2.687-.196 4.027-.33 3.253-2.16 5.304-5.117 6.46-1.918.75-3.943.865-5.967.874-4.5.02-9.02.006-13.53-.02-.445-.003-.568.145-.68.542-.354 1.254-.634 2.555-1.798 3.574zm-39.62 0c-.37-.344-.758-.604-1.087-.94-.514-.525-1.14-.75-1.87-.75l-183.715.003c-.677 0-.677 0-.677-.695V10.64c0-.676 0-.676.697-.676l192.264-.003c.38 0 .856.157 1.113-.077.2-.183.14-.652.193-.994.03-.196.154-.38.09-.613h-.53c-64.98 0-129.96.001-194.938-.01-.475 0-.6.114-.6.59L.836 43.733c0 .552.146.663.677.663l188.373-.014zm-165.09-14.1l-.232-.625-5.985-16.507c-.116-.32-.243-.455-.616-.453l-12.22.002c-.386-.002-.45.123-.45.473l-.001 26.22c0 .366.097.465.464.462l7.132.002c.44.004.58-.075.578-.556l-.01-15.89c0-.173-.063-.367.074-.53.173.083.18.24.223.36L19.6 39.4c.13.364.308.454.673.453h12.27c.388.001.525-.066.525-.5l-.002-26.168c0-.38-.072-.494-.478-.5-2.377.023-4.755.027-7.132-.001-.472-.006-.57.117-.57.573l.008 16.3c.001.198.058.408-.11.704zm82.355-6c-2.133 0-4.266.01-6.398-.008-.364-.003-.47.1-.466.46l-.002 4.353c-.008.416.112.53.518.528l3.982.044c.334.001.407.12.408.43a6.58 6.58 0 0 1-.188 1.661 1.98 1.98 0 0 1-1.955 1.504c-.35-.002-.7.006-1.048.006-1.1-.001-2.202.017-3.302-.01-1.14-.028-1.948-.91-1.973-2.338-.052-2.97-.06-5.944.002-8.914.03-1.44.65-2.4 2.477-2.357 1.292.03 2.585-.002 3.878-.003a1.94 1.94 0 0 1 1.906 1.49c.078.32.21.4.524.4l7.395-.008c.993 0 1.013-.001.95-.996-.132-2.116-.687-4.066-2.338-5.54-1.868-1.667-4.12-2.38-6.566-2.46-2.253-.07-4.5-.006-6.764-.03-1.705-.018-3.38.134-4.98.764-1.963.773-3.584 1.95-4.466 3.95-.542 1.228-.71 2.528-.75 3.86-.125 4.122-.252 8.246.136 12.358.146 1.552.73 2.967 1.845 4.112 1.816 1.864 4.113 2.73 6.633 2.8 3.157.102 6.328.215 9.48-.082 1.965-.185 3.757-.918 5.277-2.21 1.748-1.483 2.354-3.484 2.497-5.682.164-2.532.09-5.067.12-7.602.004-.383-.084-.503-.488-.5l-6.346.01zm8.11 1.904l-.01 13.162c-.001.4.087.523.51.52l6.817-.002c.4.004.526-.085.523-.508l-.02-9.387c-.002-.447.067-.622.58-.615l7.71.006c.38-.002.53.057.526.495l-.02 9.544c-.001.367.095.467.464.464l6.922.002c.402.004.482-.105.48-.49V13.04c0-.377-.104-.45-.463-.45a399.29 399.29 0 0 1-6.922-.001c-.405-.004-.485.113-.483.495l.017 9.282c.002.39-.068.526-.5.522l-7.71-.002c-.456.004-.613-.083-.608-.584l.023-9.23c.002-.394-.09-.488-.486-.484h-6.765c-.456-.005-.604.084-.602.58l.015 13.005zm-53.346-3.41v8.128c0 .838-.018 1.676.102 2.51.24 1.683.808 3.2 2.064 4.41 1.89 1.806 4.214 2.554 6.758 2.647 1.973.073 3.95.01 5.925.02 1.445.007 2.85-.226 4.195-.743 2.59-.994 4.408-2.702 5.01-5.51.287-1.34.332-2.708.34-4.065l.022-17.042c.001-.36-.12-.424-.448-.422-2.412.013-4.824.02-7.236-.005-.425-.004-.502.125-.5.52l.012 17.566c0 .46-.065.904-.176 1.345-.245.972-1.02 1.546-2.026 1.538a250.65 250.65 0 0 0-3.878 0c-1.006.008-1.787-.564-2.03-1.532-.11-.44-.175-.886-.174-1.345l.012-17.566c0-.386-.063-.53-.5-.524-2.324.024-4.65.025-6.974-.001-.44-.005-.504.143-.502.53l.007 9.543zm-3.988 17.08h3.67c.557 0 .622-.08.505-.63-.018-.084-.057-.164-.082-.247l-7.635-25.82c-.104-.354-.25-.45-.608-.447a1083.32 1083.32 0 0 1-11.113-.004c-.44-.003-.58.14-.698.536L34.3 39.156c-.178.614-.112.69.466.69l7.34.01c.365.002.5-.098.596-.454.302-1.27.65-2.53.964-3.798.077-.3.2-.454.554-.452l7.968.001c.3-.001.425.108.495.383l.974 3.798c.09.382.23.535.65.523 1.206-.033 2.412-.012 3.618-.012zm128.94-22.18c-.224-1.208-1.12-1.802-2-2.39-.73-.486-1.605-.393-2.424-.5-1-.13-1.776.74-1.65 1.75s.597 1.825 1.318 2.48c.495.45.973 1.007 1.668 1.126.45.077.75.266 1.01.605.083.11.2.197.312.278.184.132.254.256.2.517-.39 1.803.022 3.392 1.256 4.793 1.102 1.25 2.397 2.226 3.847 3.02.388.212.783.42 1.07.767-.096.145-.213.1-.306.095-1.575-.064-3.024.24-4.312 1.24-1.093.848-2.166 1.664-2.246 3.203-.005.097-.063.2-.104.304-.26-.108-.393-.32-.554-.5-.353-.386-.812-.586-1.3-.54-.957.087-1.89.313-2.73.804-.915.533-1.026 1.347-.29 2.104.416.427.9.77 1.426 1.052.644.347 1.255.735 1.85 1.173.863.635 1.752 1.276 2.86 1.44.166.024.23.143.32.244.644.73 1.396 1.307 2.33 1.62a1.56 1.56 0 0 1 .688.447c.583.65 1.326 1.056 2.145 1.335 1.93.657 3.923.797 5.933.626 1.388-.118 2.754-.382 3.9-1.287.15-.12.26-.335.518-.328.055.877.202 1.736.482 2.552.587 1.706 1.847 2.877 3.258 3.915.51.374 1.148.492 1.633.915 1.67 1.453 3.505 2.19 5.77 1.515 2.145-.64 3.8-1.76 4.605-3.943.172-.47.393-.92.63-1.36.243-.452.627-.646 1.097-.676.887-.057 1.778-.117 2.666-.104 1.417.022 2.8-.144 4.164-.53.917-.26 1.8-.593 2.615-1.083.618-.377 1.14-.91 1.44-1.607.567-1.32 1.02-2.7 1.214-4.105.232-1.7-.59-3.153-1.475-4.543-.483-.76-1.27-1.262-1.767-1.99-1.317-1.924-3.1-3.303-5.087-4.422-3.654-2.067-7.546-3.55-11.68-4.356-.2-.038-.43.017-.623-.202 1.024-.35 1.348-1.22 1.633-2.136.26-.838.41-1.697.526-2.56.152.018.19.1.224.177.574 1.37 1.612 2.234 2.97 2.758.192.074.4.133.534.31.565.736 1.38 1.084 2.204 1.42 1.563.637 3.2.926 4.87 1.135.686.087 1.387.16 2.078-.01 1.118-.27 1.815-1.3 1.847-2.698a12.57 12.57 0 0 0-2.515-7.96c-.676-.918-1.496-1.705-2.21-2.585-1.1-1.353-2.182-2.777-3.736-3.604-1.078-.572-1.956-1.302-2.794-2.144-.244-.244-.51-.45-.68-.762-.427-.78-1.037-1.404-1.748-1.926-1.196-.876-2.54-.37-2.923 1.054-.14.52-.07 1.02.062 1.496.293 1.06.504 2.223 2 2.42-.963.89-.86 2.098-1.148 3.228-.08-.07-.157-.114-.2-.18-.493-.767-1.104-1.436-1.73-2.095-.876-.925-1.6-1.973-2.524-2.867-.65-.635-1.396-.99-2.298-1.116-1.125-.157-2.35.03-3.294-.844-.036-.033-.094-.05-.144-.06-.294-.067-.45-.184-.472-.55s-.205-.726-.462-1.03c-.84-.995-3.28-1.675-4.475-1.23-.553.205-1.082.89-.993 1.466.217 1.412.637 2.748 1.832 3.682.285.223.624.294.984.27.143-.01.314-.233.42.073.08.228.164.394-.014.656-.96 1.413-1.277 3.025-1.058 4.675.27 2.05 1.23 3.852 2.395 5.548.89 1.297 1.948 2.413 3.275 3.26.44.28.948.465 1.352.784 1.09.86 2.24 1.603 3.583 2.062-.065.04-.092.07-.124.075-1.447.27-2.703.87-3.628 2.066-.24.312-.29.007-.348-.16-.372-1.082-.902-2.075-1.62-2.97-.354-.44-.914-.704-1.19-1.166-.714-1.2-1.698-2.11-2.784-2.943-.858-.658-1.745-1.266-2.757-1.67-1.65-.66-3.373-.63-5.096-.506-.78.057-1.528.286-2.214.707-.442.27-.8.64-1.277.988zm-34.37-5.065c-3.566 0-7.132.008-10.698-.01-.4-.002-.5.106-.485.493l-.001 5.35c-.006.424.088.56.535.554l6.03-.022c.444-.006.574.082.572.557l-.022 19.822c-.001.412.103.517.514.514l6.975.002c.478.005.6-.115.6-.597l-.02-19.717c-.001-.422.045-.594.545-.585l6.135.024c.35.003.44-.095.44-.435l.004-5.454c.006-.43-.133-.505-.528-.504l-10.593.01zm27.56 4.192l-2.184 4.702c-.072.152-.04.4-.305.433-.307.025-.303-.254-.378-.423-1.29-2.86-2.725-5.653-3.9-8.565-.083-.206-.164-.348-.44-.346l-7.76.001c-.26-.001-.304.083-.323.324-.055.667.148 1.224.466 1.817l8.026 15.166c.152.288.214.574.213.898l-.016 8.547c-.003.422.12.51.523.508l7.183-.016c.147 0 .41.127.43-.133.02-.254.154-.57-.145-.77s-.61-.396-.923-.585c-.554-.335-1.1-.693-1.524-1.18-.775-.87-.726-2.075.2-2.762.637-.472 1.333-.895 2.1-1.137.27-.084.316-.204.313-.44-.008-.576.02-1.154-.01-1.73-.027-.508.106-.944.35-1.39l2.556-4.8c.133-.25.2-.48.137-.787-.134-.664-.224-1.34-.09-2.027.13-.675-.215-1.152-.906-1.314-.26-.06-.505-.14-.722-.288-1.343-.9-2.49-1.972-2.872-3.715zm59.13 9.428l-.01 6.29c-.005.424.08.558.532.55l6.184-.03c.888-.002 1.66-.578 1.9-1.43a4.85 4.85 0 0 0 .198-1.34L248 22.19c.001-.425-.064-.835-.165-1.24a1.97 1.97 0 0 0-1.977-1.54c-2.062-.006-4.124.004-6.185-.02-.392-.004-.494.092-.49.487l.01 6.343zm-57.902-12c1.386-.23 2.702-.1 3.934.484.742.357 1.33.955 1.828 1.614.143.19.2.134.347.04.6-.4 1.227-.728 1.94-.87.184-.037.3-.153.39-.313.41-.664.68-1.35.603-2.162-.033-.342-.1-.423-.443-.42l-6.4.007c-1.665 0-1.665 0-2.208 1.59-.006.014.001.03.001.03zm22.925 10.16c.46-.623 1.125-.908 1.718-1.246-1.307-1.02-2.753-1.82-4.16-2.715-.074.26-.07.452.138.63 1.045.887 1.74 2.022 2.304 3.332zm7.136-15.218l.22-.895c-.343.038-.643-.06-.946.07l.725.826z" fill="#fff"/><g fill="#231f20"><path d="M229.505 44.382c1.164-1.02 1.444-2.32 1.796-3.574.1-.397.234-.545.68-.542l13.53.02c2.024-.01 4.05-.125 5.967-.874 2.956-1.155 4.788-3.206 5.117-6.46a37.39 37.39 0 0 0 .196-4.027l-.105-8.65c-.234-3.788-1.98-6.313-6.14-7.544-1.315-.4-2.68-.564-4.067-.56a2084.19 2084.19 0 0 1-15.21-.005c-.522-.002-.684.127-.683.668l.012 21.214c-.725-1.1-1.824-1.84-2.568-2.895-1.027-1.46-2.425-2.54-3.93-3.478-3.078-1.917-6.4-3.298-9.875-4.28l-2.103-.58c.454-.8.707-1.678.965-2.644.746.95 1.787 1.36 2.736 1.932.678.408 1.254 1.02 2.004 1.37 1.58.73 3.258 1.084 4.97 1.302.862.1 1.717.228 2.598.116 1.248-.157 2.368-1.138 2.543-2.408.4-2.83-.204-5.48-1.615-7.945-.696-1.218-1.575-2.3-2.54-3.32-.86-.9-1.57-1.955-2.457-2.846.1-.16.264-.1.4-.1l93.354-.015c.418 0 .47.133.468.498l.001 35.14c0 .38-.07.5-.476.5l-85.557-.01zM303.7 24.06c-2.132 0-4.265.01-6.396-.01-.375-.003-.463.107-.458.468l-.003 4.352c-.008.422.122.525.52.524l3.98.042c.335 0 .406.12.408.43.004.58-.05 1.15-.203 1.7a1.98 1.98 0 0 1-1.888 1.455 900.66 900.66 0 0 1-4.349-.001c-.246 0-.476-.072-.708-.158-1.024-.38-1.302-1.26-1.315-2.186-.046-2.97-.065-5.942.002-8.912.032-1.424.6-2.4 2.528-2.355 1.274.035 2.55-.001 3.825-.002a1.94 1.94 0 0 1 1.905 1.488c.08.316.208.4.525.4l7.288-.01c1.104 0 1.124-.001 1.05-1.1-.135-2.02-.67-3.9-2.212-5.327-1.878-1.75-4.174-2.486-6.677-2.57-2.252-.075-4.508-.012-6.763-.03-1.472-.012-2.927.08-4.336.54-2.256.735-4.13 1.944-5.132 4.207-.535 1.2-.697 2.495-.737 3.8-.124 4.104-.25 8.208.13 12.304.152 1.65.77 3.135 1.98 4.32 1.8 1.76 4.035 2.596 6.48 2.674 3.157.102 6.326.2 9.48-.08a9.41 9.41 0 0 0 5.243-2.16c1.762-1.463 2.4-3.45 2.55-5.652.174-2.566.1-5.136.13-7.704.005-.412-.13-.48-.505-.477l-6.343.008zm-46.075 2.117c.006 2.306-.063 4.614.213 6.9.2 1.666.778 3.174 2 4.367 1.9 1.835 4.23 2.604 6.793 2.7 2.27.077 4.543.01 6.814.032 1.688.016 3.346-.142 4.93-.76 2.56-1.002 4.377-2.688 4.977-5.478.195-.908.26-1.83.283-2.755.103-3.947.222-7.897-.147-11.837-.16-1.7-.812-3.243-2.092-4.447-1.885-1.773-4.194-2.517-6.716-2.6-2.252-.075-4.508-.013-6.762-.03-1.366-.01-2.723.052-4.037.447-4.127 1.242-5.913 3.73-6.157 7.538-.125 1.974-.113 3.948-.107 5.923zm-67.75 18.205h-.516c-62.62 0-125.238-.001-187.858.013-.53 0-.677-.1-.677-.663L.838 8.855c0-.475.115-.6.6-.6l195.467.01c.063.234-.062.417-.1.613-.053.342.007.812-.193.994-.257.234-.733.077-1.113.077L3.234 9.964c-.697 0-.697 0-.697.676V42c0 .695 0 .695.677.695l183.715-.003c.73 0 1.356.224 1.87.75.33.336.72.596 1.087.94zM24.795 30.28c.17-.296.1-.506.1-.704l-.008-16.3c-.001-.456.097-.58.57-.573l7.132.001c.406-.004.48.1.478.5l.002 26.168c0 .434-.137.5-.525.5a1858.68 1858.68 0 0 0-12.27 0c-.365.001-.542-.1-.673-.453l-5.857-16.16c-.044-.12-.05-.277-.223-.36-.137.163-.074.357-.074.53l.01 15.9c.002.48-.136.56-.578.556l-7.132-.002c-.367.003-.465-.096-.464-.462l.001-26.22c0-.35.064-.475.45-.473l12.22-.002c.373-.002.5.132.616.453L24.797 30.3zm82.355-6l6.346-.01c.404-.004.492.116.488.5-.03 2.534.044 5.07-.12 7.602-.143 2.197-.75 4.198-2.497 5.682-1.52 1.3-3.312 2.024-5.277 2.2-3.153.297-6.325.184-9.48.082-2.52-.08-4.817-.945-6.633-2.8-1.115-1.146-1.698-2.56-1.845-4.112-.388-4.112-.26-8.236-.136-12.358.04-1.33.2-2.632.75-3.86.882-1.998 2.503-3.176 4.466-3.95 1.598-.63 3.273-.78 4.98-.764l6.764.03c2.448.08 4.698.792 6.566 2.46 1.65 1.474 2.206 3.424 2.338 5.54.062.995.042.996-.95.996-2.465 0-4.93-.006-7.395.008-.315.002-.446-.08-.524-.4a1.94 1.94 0 0 0-1.906-1.49l-3.878.003c-1.828-.044-2.446.917-2.477 2.357-.063 2.97-.054 5.943-.002 8.914.025 1.427.833 2.3 1.973 2.338 1.1.027 2.2.01 3.302.01l1.048-.006a1.98 1.98 0 0 0 1.955-1.504 6.58 6.58 0 0 0 .188-1.661c-.001-.308-.074-.428-.408-.43l-3.982-.044c-.406.001-.526-.112-.518-.528.028-1.45.024-2.902.002-4.353-.005-.37.102-.464.466-.46l6.398.007zm8.1 1.904l-.013-13.006c-.002-.495.146-.584.602-.58h6.765c.395-.004.488.1.486.484l-.023 9.23c-.004.5.152.588.608.584l7.7.002c.43.004.5-.134.5-.522l-.017-9.282c-.002-.382.08-.5.483-.495h6.922c.358-.002.463.072.463.45v26.326c0 .384-.08.493-.48.5l-6.922-.002c-.37.003-.466-.097-.464-.464l.02-9.544c.003-.438-.146-.497-.526-.495-2.57.016-5.14.024-7.7-.006-.513-.007-.583.168-.58.615l.02 9.387c.003.423-.122.512-.523.508a360.25 360.25 0 0 0-6.817.002c-.422.004-.5-.12-.5-.52l.007-13.16zm-53.346-3.4l-.008-9.544c-.002-.387.062-.534.502-.53h6.974c.436-.005.5.14.5.524L69.87 30.79a5.47 5.47 0 0 0 .174 1.345c.244.968 1.025 1.54 2.03 1.532h3.878c1.005.008 1.782-.566 2.026-1.538.1-.44.177-.886.176-1.345l-.012-17.566c-.001-.394.076-.522.5-.52l7.236.005c.33-.002.45.06.448.422l-.022 17.042c-.007 1.357-.052 2.725-.34 4.065-.6 2.8-2.42 4.517-5 5.5-1.347.518-2.75.75-4.195.743-1.975-.008-3.952.055-5.925-.02-2.544-.094-4.87-.842-6.758-2.647-1.256-1.2-1.823-2.73-2.064-4.4-.12-.835-.1-1.673-.102-2.5l.001-8.127zm-3.988 17.08c-1.206 0-2.412-.02-3.617.012-.42.012-.56-.142-.65-.523-.306-1.27-.654-2.53-.974-3.798-.07-.274-.185-.384-.495-.383-2.656.016-5.312.018-7.968-.001-.364-.002-.477.143-.554.452l-.964 3.798c-.085.356-.23.456-.596.454l-7.34-.01c-.578 0-.644-.075-.466-.7l7.653-25.926c.117-.396.258-.54.698-.536l11.113.004c.36-.002.503.093.608.447l7.635 25.82c.024.083.063.163.082.247.117.55.05.63-.505.63h-3.67zM45.384 29.65h5.607l-2.582-9.006c-.04-.134.01-.368-.197-.385-.26-.02-.204.25-.244.388l-2.584 9.003zm141.48-11.984c.467-.348.835-.717 1.28-1 .686-.42 1.433-.65 2.214-.707 1.723-.125 3.446-.153 5.096.506 1.012.404 1.9 1.012 2.757 1.67 1.085.832 2.07 1.743 2.784 2.943.275.462.836.727 1.2 1.166a9.76 9.76 0 0 1 1.621 2.969c.057.166.108.47.348.16.925-1.197 2.18-1.795 3.628-2.066.03-.006.058-.034.124-.075-1.344-.46-2.494-1.2-3.583-2.062-.404-.32-.913-.504-1.352-.784-1.327-.848-2.384-1.964-3.275-3.26-1.166-1.696-2.124-3.497-2.395-5.548-.22-1.65.1-3.262 1.058-4.675.178-.263.093-.43.014-.656-.106-.307-.278-.082-.42-.073-.36.022-.7-.05-.984-.27-1.195-.934-1.615-2.27-1.832-3.682-.1-.575.44-1.26.993-1.466 1.194-.444 3.635.235 4.475 1.23.257.305.44.662.462 1.03s.178.48.472.55a.3.3 0 0 1 .144.06c.945.875 2.17.687 3.294.844.903.127 1.65.48 2.298 1.116.915.895 1.648 1.942 2.524 2.867.624.66 1.236 1.328 1.73 2.095.042.065.12.1.2.18.288-1.13.185-2.337 1.148-3.228-1.497-.197-1.708-1.36-2-2.42-.13-.475-.2-.977-.062-1.496.382-1.424 1.727-1.93 2.923-1.054.7.52 1.32 1.146 1.748 1.926.17.313.437.518.68.762.84.842 1.717 1.57 2.794 2.144 1.555.827 2.636 2.252 3.736 3.604.715.88 1.535 1.667 2.2 2.585a12.57 12.57 0 0 1 2.515 7.96c-.032 1.4-.73 2.427-1.847 2.698-.7.168-1.392.096-2.078.01-1.66-.2-3.308-.498-4.87-1.135-.823-.336-1.64-.684-2.204-1.42-.135-.176-.342-.234-.534-.3-1.36-.523-2.397-1.4-2.97-2.758-.033-.078-.072-.16-.224-.177-.115.863-.267 1.723-.526 2.56-.285.917-.6 1.786-1.633 2.136.193.22.423.164.623.202 4.134.807 8.026 2.3 11.68 4.356 1.977 1.12 3.77 2.498 5.087 4.422.497.728 1.284 1.23 1.767 2 .884 1.4 1.707 2.853 1.475 4.543-.193 1.406-.647 2.785-1.214 4.105-.3.698-.822 1.23-1.44 1.607-.806.5-1.7.822-2.615 1.083-1.363.387-2.746.553-4.164.53-.888-.014-1.78.047-2.666.104-.47.03-.854.224-1.097.676-.238.442-.46.892-.63 1.36-.795 2.183-2.46 3.303-4.605 3.943-2.266.677-4.102-.062-5.77-1.515-.485-.423-1.125-.54-1.633-.915-1.4-1.038-2.67-2.2-3.258-3.915-.28-.815-.427-1.675-.482-2.552-.257-.007-.367.2-.518.328-1.146.905-2.513 1.17-3.9 1.287-2 .17-4.003.03-5.933-.626-.82-.28-1.563-.684-2.145-1.335a1.56 1.56 0 0 0-.688-.447c-.934-.314-1.686-.9-2.33-1.62-.1-.102-.154-.22-.32-.244-1.1-.165-1.998-.807-2.86-1.44-.594-.438-1.205-.826-1.85-1.173a5.83 5.83 0 0 1-1.426-1.052c-.737-.758-.625-1.57.3-2.104.842-.5 1.774-.717 2.73-.804.5-.045.957.155 1.3.54.162.178.293.4.554.5.04-.113.1-.207.104-.304.08-1.54 1.153-2.355 2.246-3.203 1.288-.998 2.737-1.304 4.312-1.24.093.004.2.05.306-.095-.287-.348-.683-.555-1.07-.767-1.45-.795-2.745-1.77-3.847-3.02-1.234-1.4-1.645-3-1.256-4.793.056-.26-.015-.385-.2-.517a1.41 1.41 0 0 1-.312-.278 1.48 1.48 0 0 0-1.009-.605c-.695-.12-1.173-.677-1.668-1.126-.72-.654-1.192-1.472-1.318-2.48s.64-1.88 1.65-1.75c.82.106 1.695.013 2.424.5.877.6 1.773 1.183 1.997 2.4zm15.362 23.75c-.026.968.23 1.9.328 2.85.087.847.338 1.618.813 2.333.815 1.228 1.912 2.118 3.2 2.8 1.075.563 2.218.742 3.395.43 1.762-.468 3.22-1.343 4.115-3.036.403-.76.676-1.565 1.055-2.33.064-.13.1-.23.248-.296.5-.228 1.014-.393 1.54-.397 1.52-.015 3.034-.145 4.55-.223 1.286-.066 2.496-.448 3.64-.984 1.43-.668 2.304-1.84 2.777-3.353.476-1.52.795-3.025.293-4.598-.8-2.54-2.538-4.4-4.738-5.7-3.177-1.892-6.57-3.36-10.177-4.287-1.562-.402-3.114-.753-4.75-.58-2.357.25-3.932 1.235-4.558 3.6-.116.436-.25.868-.348 1.308-.413 1.852-.7 3.725-.94 5.604-.135 1.053-.4 2.095-.314 3.17.04.487.087.97.04 1.463-.073.745-.113 1.495-.168 2.243zM196.77 30c.508-.02 1.023.022 1.5-.125.737-.226 1.554-.24 2.165-.817.857-.812 1.312-1.797 1.3-2.977-.026-2.54-1.1-4.622-2.782-6.46-.675-.737-1.602-1.082-2.355-1.7-.475-.384-1.038-.637-1.622-.828-1.683-.554-3.417-.577-5.126-.275-1.415.25-2.5 1.04-3.077 2.466a13.55 13.55 0 0 0-.762 2.538c-.193 1.005-.148 2.002.375 2.938.9 1.594 2.265 2.745 3.802 3.56 2.018 1.07 4.256 1.6 6.57 1.67zm-3.194 12.376c.5.045 1.006-.063 1.506-.1 1.47-.14 2.855-.456 4.037-1.457 1.267-1.073 2.176-2.257 1.87-4.034-.07-.4-.122-.822-.206-1.23-.23-1.117-.85-1.953-1.842-2.518-.377-.215-.744-.448-1.114-.676-1.2-.743-2.58-1.035-3.94-1.276-1.072-.2-2.18-.1-3.278-.067-1.222.034-2.286.3-3.262 1.022-.752.548-1.598 1.08-1.832 2.006-.267 1.062-.52 2.158-.268 3.3.47 2.126 1.594 3.697 3.716 4.387 1.494.484 3.063.543 4.614.662zm16.237-27.726c0-.228-.007-.454.001-.68.1-2.758-.5-5.257-2.53-7.294-.806-.805-1.594-1.406-2.802-1.494-1.377-.1-2.66-.146-3.88.692-.987.678-1.827 1.397-2.18 2.598-.1.336-.153.673-.215 1-.2 1.083-.186 2.146.146 3.227.46 1.5 1.18 2.846 2.07 4.128 1.282 1.842 2.978 3.15 5.083 3.832 2.024.654 3.4-.05 4.017-2.22.35-1.245.277-2.524.287-3.796zm12.182 7.057h.63c.776-.004 1.48-.482 1.695-1.233.542-1.9.313-3.765-.45-5.517-.947-2.174-2.103-4.24-3.88-5.9-1.306-1.22-2.763-2.02-4.58-1.918-1.077.06-2.46.824-2.663 2.25-.167 1.177-.305 2.354-.313 3.54-.013 1.717.502 3.348 1 4.958.386 1.252 1.233 2.226 2.53 2.683 1.95.687 3.946 1.163 6.034 1.136zM197.37 1.48c-1.27-.02-1.54.207-1.408 1.062a5.36 5.36 0 0 0 .768 2.04c.534.843 1.138 1 1.996.557.513-.265.987-.604 1.305-1.102.422-.66.387-1.156-.135-1.682-.767-.772-1.775-.78-2.526-.875zm-14.597 14.075c-1.053-.055-1.343.307-1.162 1.166.216 1.024.953 1.647 1.696 2.3.495.434.958.442 1.48.207a1.88 1.88 0 0 0 1.052-1.237 1.21 1.21 0 0 0-.375-1.31c-.835-.8-1.78-1.2-2.7-1.127zm1.33 21.188c.001-1.298-.717-2.1-1.688-2.007-.7.076-1.405.26-2.04.608-.54.298-.593.592-.15 1 .733.695 1.622 1.146 2.552 1.502.695.266 1.095.03 1.28-.693.046-.182.043-.38.047-.42zm27.4-32.595c.058.646.176 1.28.448 1.873s.467.666 1.12.52c.432-.097.828-.266 1.206-.486.485-.284.62-.707.428-1.248-.25-.713-.8-1.17-1.372-1.604-.36-.27-.776-.443-1.218-.245-.495.223-.576.704-.613 1.2zM199.26 32.362c.956.685 1.64 1.4 2.05 2.367.038.087.132.155.2.218.2.15.28.127.313-.145.115-.928.256-1.852.396-2.837-.932.35-1.878.353-2.97.397zM152.495 12.6h10.593c.395-.001.534.074.528.504l-.004 5.454c.002.34-.088.438-.44.435-2.045-.02-4.1.012-6.135-.024-.5-.01-.546.163-.545.585l.02 19.717c.001.48-.12.602-.6.597l-6.975-.002c-.4.003-.515-.102-.514-.514l.022-19.822c.001-.475-.128-.563-.572-.557-2 .025-4.02-.003-6.03.022-.447.006-.54-.13-.535-.554l.001-5.35c-.004-.387.084-.495.485-.493h10.698z"/><path d="M180.054 16.792c.38 1.743 1.53 2.805 2.873 3.716a2.1 2.1 0 0 0 .722.288c.69.162 1.035.64.906 1.314-.132.688-.043 1.363.09 2.027.062.31-.004.537-.137.787l-2.556 4.8c-.244.444-.377.88-.35 1.39l.01 1.73c.003.235-.044.355-.313.44-.768.242-1.464.665-2.1 1.137-.925.687-.975 1.893-.2 2.762.435.487.97.846 1.524 1.18l.923.585c.3.2.166.516.145.77-.02.26-.283.133-.43.133-2.395.01-4.79-.004-7.183.016-.402.003-.526-.086-.523-.508l.016-8.547c0-.324-.06-.6-.213-.898l-8.026-15.166c-.318-.594-.52-1.15-.466-1.817.02-.24.062-.325.323-.324l7.76-.001c.276-.002.358.14.44.346l3.9 8.565c.076.17.072.448.378.423.266-.022.233-.28.305-.433l2.183-4.703zm59.13 9.428l-.01-6.343c-.004-.396.098-.49.49-.487l6.185.02c.974.003 1.745.6 1.977 1.54.1.405.166.815.165 1.24L248 30.264c.001.46-.075.902-.198 1.34-.24.85-1.013 1.427-1.9 1.43-2.062.006-4.123-.003-6.184.03-.45.007-.537-.127-.532-.55l.01-6.29zm-57.902-12s-.006-.017-.002-.03c.543-1.59.543-1.59 2.208-1.59l6.4-.007c.333-.003.4.078.443.42.08.813-.19 1.498-.603 2.162-.1.16-.205.275-.39.313-.712.144-1.34.48-1.94.87-.146.095-.204.15-.347-.04-.497-.66-1.086-1.257-1.828-1.614-1.23-.596-2.548-.716-3.933-.485zm22.925 10.16c-.563-1.3-1.26-2.445-2.304-3.332-.21-.177-.212-.368-.138-.63l4.16 2.715c-.593.338-1.258.623-1.718 1.246zm7.136-15.218l-.725-.825c.303-.128.603-.03.946-.07l-.22.894z"/></g><path d="M303.7 24.06l6.344-.01c.376-.004.51.064.505.477l-.13 7.704c-.148 2.2-.788 4.19-2.55 5.652-1.52 1.26-3.295 1.98-5.243 2.16-3.154.288-6.323.18-9.48.08-2.445-.078-4.68-.914-6.48-2.674-1.2-1.185-1.828-2.67-1.98-4.32-.377-4.096-.252-8.2-.13-12.304.04-1.313.202-2.6.737-3.81 1-2.263 2.876-3.472 5.132-4.207 1.41-.46 2.865-.552 4.336-.54l6.763.03c2.503.084 4.798.82 6.677 2.57 1.542 1.437 2.077 3.306 2.212 5.327.073 1.1.053 1.1-1.05 1.1-2.43 0-4.858-.006-7.288.01-.317.001-.445-.084-.525-.4a1.94 1.94 0 0 0-1.905-1.488l-3.825.002c-1.92-.054-2.496.932-2.528 2.355-.067 2.97-.048 5.942-.002 8.912.014.926.29 1.807 1.315 2.186.232.086.462.158.708.158h4.35a1.98 1.98 0 0 0 1.888-1.455c.152-.56.207-1.13.203-1.71-.001-.308-.072-.43-.408-.43-1.327 0-2.654-.045-3.98-.042-.4.001-.53-.103-.52-.524a128.85 128.85 0 0 0 .003-4.352c-.005-.36.083-.47.458-.468l6.395.01zm-46.075 2.117c-.006-1.975-.018-3.95.108-5.92.244-3.807 2.03-6.296 6.157-7.538 1.314-.396 2.67-.458 4.037-.447l6.762.03c2.522.084 4.83.827 6.716 2.6 1.28 1.204 1.932 2.737 2.092 4.447.37 3.94.25 7.9.147 11.837-.024.926-.088 1.847-.283 2.755-.6 2.8-2.417 4.476-4.977 5.478-1.583.62-3.24.776-4.93.76-2.27-.022-4.545.045-6.814-.032-2.564-.087-4.903-.856-6.793-2.69-1.23-1.193-1.81-2.7-2.01-4.367-.277-2.298-.208-4.607-.214-6.912zm8.805.035l-.004 3.982c-.004.44.064.87.17 1.292.243.97 1.022 1.548 2.02 1.54h4.084c1 .01 1.786-.558 2.034-1.522a5.51 5.51 0 0 0 .187-1.395v-7.754c.002-.495-.07-.973-.193-1.446-.232-.888-.998-1.49-1.904-1.492-1.257-.002-2.515.048-3.77-.001-1.607-.063-2.414.604-2.597 2.188a5.01 5.01 0 0 0-.027.575l-.001 4.033z" fill="#fff"/><path d="M45.384 29.65l.857-2.975 1.727-6.028c.04-.138-.017-.408.244-.388.207.017.16.25.197.385l2.582 9.006h-5.607z" fill="#fcfcfc"/><path d="M202.227 41.416l.168-2.244c.048-.492 0-.976-.04-1.463-.086-1.075.18-2.117.314-3.17l.94-5.604.348-1.308c.626-2.364 2.2-3.35 4.558-3.6 1.636-.174 3.188.177 4.75.58 3.606.927 7 2.396 10.177 4.287 2.2 1.31 3.927 3.17 4.738 5.7.502 1.572.182 3.08-.293 4.598-.474 1.512-1.35 2.685-2.777 3.353-1.145.536-2.355.918-3.64.984-1.516.078-3.03.208-4.55.223-.525.005-1.048.17-1.54.397-.146.067-.184.167-.248.296-.378.765-.652 1.57-1.055 2.33-.896 1.693-2.353 2.568-4.115 3.036-1.177.312-2.32.132-3.395-.43-1.287-.673-2.384-1.563-3.2-2.79-.475-.715-.726-1.486-.813-2.333-.098-.95-.353-1.88-.328-2.85zM196.77 30.01c-2.314-.067-4.552-.598-6.57-1.67-1.537-.815-2.91-1.967-3.802-3.56-.523-.937-.568-1.934-.375-2.938a13.55 13.55 0 0 1 .762-2.538c.578-1.425 1.663-2.216 3.077-2.466 1.708-.302 3.443-.278 5.126.275.583.19 1.146.444 1.622.828.754.607 1.68.952 2.355 1.69 1.683 1.84 2.755 3.922 2.782 6.46.012 1.18-.442 2.165-1.3 2.977-.6.578-1.427.592-2.165.817-.488.148-1.003.107-1.51.126zm-3.194 12.376c-1.55-.12-3.12-.178-4.613-.663-2.122-.69-3.245-2.26-3.716-4.387-.25-1.133.001-2.23.268-3.29.233-.926 1.08-1.458 1.832-2.006.977-.712 2.04-.988 3.262-1.022 1.1-.03 2.206-.123 3.278.067 1.36.24 2.73.533 3.94 1.276.37.228.736.46 1.114.676.992.564 1.612 1.4 1.842 2.518.083.407.135.82.206 1.23.307 1.777-.603 2.96-1.87 4.034-1.182 1-2.566 1.317-4.037 1.457-.5.048-.997.157-1.507.112zm16.237-27.726c-.01 1.27.064 2.55-.3 3.796-.618 2.172-1.993 2.875-4.017 2.22-2.105-.682-3.8-2-5.083-3.832-.892-1.282-1.6-2.627-2.07-4.128-.332-1.08-.346-2.144-.146-3.227.062-.336.117-.673.215-1.01.354-1.2 1.193-1.92 2.18-2.598 1.22-.84 2.502-.792 3.88-.692 1.208.088 1.997.69 2.802 1.494 2.04 2.037 2.63 4.536 2.53 7.294-.004.227.002.454.002.68zm12.182 7.056c-2.088.028-4.083-.448-6.035-1.136-1.297-.457-2.145-1.43-2.53-2.683-.496-1.6-1.01-3.24-1-4.958.01-1.187.146-2.364.313-3.54.202-1.425 1.586-2.188 2.663-2.25 1.817-.103 3.274.697 4.58 1.918 1.778 1.66 2.934 3.726 3.88 5.9.763 1.752.992 3.627.45 5.517-.216.75-.918 1.23-1.695 1.233h-.628zM197.37 1.48c.75.095 1.76.104 2.525.875.522.525.557 1.02.135 1.682-.318.497-.792.837-1.305 1.102-.857.442-1.46.286-1.996-.557a5.367 5.367 0 0 1-.768-2.04c-.132-.855.14-1.083 1.41-1.062zm-14.597 14.075c.91-.063 1.856.337 2.692 1.127.425.4.51.833.375 1.3a1.88 1.88 0 0 1-1.052 1.237c-.522.235-.986.227-1.48-.207-.743-.653-1.48-1.276-1.696-2.3-.18-.86.108-1.22 1.16-1.166zm1.33 21.188c-.004.04-.001.236-.047.42-.186.724-.585.96-1.28.693-.93-.356-1.82-.807-2.552-1.502-.44-.417-.4-.71.15-1.01.635-.35 1.33-.532 2.04-.608.97-.102 1.69.71 1.688 2.007zm27.41-32.595c.038-.484.118-.966.614-1.19.442-.198.86-.026 1.218.245.572.433 1.12.89 1.372 1.604.19.54.057.964-.428 1.248-.378.22-.774.4-1.206.486-.654.146-.848.074-1.12-.52s-.39-1.227-.45-1.873z" fill="#fd0000"/><path d="M199.26 32.362c1.09-.044 2.037-.046 2.97-.396l-.396 2.837c-.034.27-.122.294-.313.145-.08-.063-.174-.13-.21-.218-.41-.958-1.094-1.683-2.05-2.368z" fill="#fcfcfc"/><path d="M266.44 26.212V22.18l.027-.575c.184-1.583 1-2.25 2.597-2.188l3.77.001c.906.001 1.672.604 1.904 1.492a5.58 5.58 0 0 1 .193 1.446v7.754a5.42 5.42 0 0 1-.187 1.395c-.25.965-1.024 1.53-2.034 1.522a264.75 264.75 0 0 0-4.084 0c-1 .008-1.778-.57-2.02-1.54-.106-.423-.174-.85-.17-1.292l.004-3.982z" fill="#231f20"/></svg>